<svg version="1" xmlns="http://www.w3.org/2000/svg" width="1600" height="1600" viewBox="0 0 1200.000000 1200.000000"><path d="M567 150.6c-15.9 1.4-35.4 3.9-47 6-106.3 19.5-200.3 81.5-260.5 171.9-20.8 31.3-36 62.7-47.4 97.9-4.3 13.4-11.1 38.7-11.1 41.6 0 .6 1.3.4 3.2-.6 10.6-5.5 34.5 7.8 79.8 44.5 31.4 25.4 54.9 46.6 100 90.2C441.7 658 477 695 506.1 730c29.9 36.1 84.2 105.8 83.6 107.3-1.2 2.9-18.4 23.2-29 34.3-61.2 63.8-141.4 102.4-230.7 111-20.1 2-58.1 1.4-77-1.1-36.8-4.8-72-14.6-103.9-28.9-9.9-4.4-11.8-5-11-3.3 2.2 3.9 32.6 33.5 43.4 42.1 61 48.5 136.2 73.8 212.5 71.3 46.1-1.6 88-12.3 131.1-33.6 32.8-16.2 70.5-42.3 94-64.8l8.6-8.3 7.4 5.3c13.9 9.9 27.4 17.9 45.4 26.7 31.6 15.5 60.5 24.6 96.3 30.1 19.5 3 58.9 3.7 80.2 1.5 99.8-10.5 188.6-66.1 242.1-151.7 8.4-13.5 22.2-41.3 27.4-55.4 22.8-61.2 27.1-124.9 12.9-188.2-4.5-20-13.2-45.3-21.8-63.3-2.9-5.9-3.5-6.8-3.1-4 5.9 40.3 5.9 74.6 0 109.6-13.4 79.6-55 150.8-117.4 201-32.1 25.9-73.3 47.5-112.8 59.3-28 8.3-53 12.1-84.5 12.8-42.2 1-74.5-3.8-113.7-17l-15.4-5.1 4.4-3.7c44-36.8 66.4-59.9 104.8-107.9 68.6-85.7 100.6-135.3 145-224 16.8-33.7 24.3-50.9 32.2-74 13.4-38.9 17.1-63.6 13.4-88.2-4.2-28.2-32.2-80.4-63-117.3-72.3-86.9-162.3-137-269.5-150-12.8-1.6-60.3-2.8-71-1.9z"/></svg>